:FULLY-SPECIFIED
:FORCE-ALL-JOINTS-BE-3DOF
:DEGREES
3058
root -1.6242 15.9712 -34.1733 1087.43 4.96142 1.77639
lfemur -34.882 5.86178 -1.54724
ltibia 53.6715 0 0
lfoot -10.1161 -7.17215 0
ltoes -45.9269 0 0
rfemur -38.3049 -5.89839 25.1687
rtibia 62.0618 0 0
rfoot -21.9266 -28.4322 0
rtoes 3.00495 0 0
lowerback 13.6551 0.131712 -1.58242
upperback -1.01638 0.0628311 1.69002
thorax -8.78874 0.152705 2.69115
lowerneck 4.49803 -9.34718 -12.5034
upperneck -3.6357 -12.8887 10.1359
head -0.352878 -6.5115 4.98929
lclavicle 1.38668e-14 -1.63757e-14 0
lhumerus 17.8821 -45.4286 85.5911
lradius 71.0082 0 0
lwrist -3.95477 0 0
lhand -27.9719 396.966 0
lfingers 7.12502 0 0
lthumb -1.35883 -653.058 0
rclavicle 1.38668e-14 -1.63757e-14 0
rhumerus 24.804 48.8826 -44.1738
rradius 105.821 0 0
rwrist -44.8452 0 0
rhand -7.62153 -399.648 0
rfingers 7.12502 0 0
rthumb 18.273 291.191 0
3059
root -1.58558 15.9749 -34.1547 1087.39 4.89972 1.71791
lfemur -35.0115 5.69511 -1.78359
ltibia 54.0534 0 0
lfoot -10.2559 -6.79751 0
ltoes -45.7497 0 0
rfemur -38.1864 -5.70569 25.1529
rtibia 62.1395 0 0
rfoot -21.7018 -28.4373 0
rtoes 2.5394 0 0
lowerback 13.6394 0.126772 -1.51109
upperback -1.00804 0.0661603 1.66804
thorax -8.77037 0.149901 2.62574
lowerneck 4.43552 -9.29136 -12.4356
upperneck -3.57795 -12.8052 10.1306
head -0.340889 -6.46951 4.97185
lclavicle 1.16466e-14 -1.70248e-14 0
lhumerus 17.5629 -45.5303 85.7518
lradius 70.9706 0 0
lwrist -3.42889 0 0
lhand -28.009 397.073 0
lfingers 7.12502 0 0
lthumb -1.39462 -652.951 0
rclavicle 1.16466e-14 -1.70248e-14 0
rhumerus 24.2528 49.0985 -44.7039
rradius 105.932 0 0
rwrist -44.7296 0 0
rhand -7.64096 -400.335 0
rfingers 7.12502 0 0
rthumb 18.2543 290.502 0
3060
root -1.54695 15.9786 -34.1362 1087.36 4.84462 1.65055
lfemur -35.1102 5.50554 -2.04335
ltibia 54.4079 0 0
lfoot -10.4247 -6.37296 0
ltoes -45.5505 0 0
rfemur -38.0286 -5.50232 25.1164
rtibia 62.1905 0 0
rfoot -21.4598 -28.4199 0
rtoes 1.97566 0 0
lowerback 13.6101 0.125166 -1.43514
upperback -1.00466 0.0746811 1.64577
thorax -8.74967 0.149395 2.55642
lowerneck 4.3542 -9.2202 -12.3525
upperneck -3.50416 -12.6996 10.1097
head -0.32447 -6.41619 4.94876
lclavicle 9.26839e-15 -1.76256e-14 0
lhumerus 17.0916 -45.6093 85.9755
lradius 70.9403 0 0
lwrist -2.89281 0 0
lhand -28.0512 397.162 0
lfingers 7.12502 0 0
lthumb -1.43537 -652.863 0
rclavicle 9.26839e-15 -1.76256e-14 0
rhumerus 23.4821 49.3012 -45.4183
rradius 106.058 0 0
rwrist -44.5735 0 0
rhand -7.66013 -400.931 0
rfingers 7.12502 0 0
rthumb 18.2358 289.904 0
3061
root -1.50833 15.9824 -34.1177 1087.31 4.82273 1.57553
lfemur -35.1606 5.29123 -2.32471
ltibia 54.6997 0 0
lfoot -10.6365 -5.90974 0
ltoes -45.3524 0 0
rfemur -37.823 -5.28847 25.0488
rtibia 62.2083 0 0
rfoot -21.1989 -28.3735 0
rtoes 1.30326 0 0
lowerback 13.5644 0.126937 -1.35348
upperback -1.00714 0.0886759 1.62361
thorax -8.72605 0.151288 2.48297
lowerneck 4.25044 -9.1291 -12.2511
upperneck -3.41054 -12.5655 10.0697
head -0.302863 -6.34825 4.91876
lclavicle 6.82522e-15 -1.81804e-14 0
lhumerus 16.4191 -45.6726 86.281
lradius 70.9294 0 0
lwrist -2.34566 0 0
lhand -28.0973 397.241 0
lfingers 7.12502 0 0
lthumb -1.4799 -652.785 0
rclavicle 6.82522e-15 -1.81804e-14 0
rhumerus 22.4214 49.5055 -46.355
rradius 106.22 0 0
rwrist -44.363 0 0
rhand -7.67957 -401.424 0
rfingers 7.12502 0 0
rthumb 18.2171 289.409 0
3062
root -1.46971 15.9861 -34.0991 1087.26 4.86062 1.49409
lfemur -35.145 5.05033 -2.62583
ltibia 54.8939 0 0
lfoot -10.9054 -5.41909 0
ltoes -45.1784 0 0
rfemur -37.5613 -5.06433 24.9394
rtibia 62.1863 0 0
rfoot -20.9178 -28.2917 0
rtoes 0.51173 0 0
lowerback 13.4996 0.132129 -1.26504
upperback -1.01638 0.108427 1.60196
thorax -8.69891 0.155679 2.40518
lowerneck 4.1206 -9.01346 -12.1289
upperneck -3.29327 -12.3964 10.0069
head -0.275312 -6.26241 4.8806
lclavicle 4.41038e-15 -1.86915e-14 0
lhumerus 15.4964 -45.7271 86.6868
lradius 70.9498 0 0
lwrist -1.78656 0 0
lhand -28.1461 397.319 0
lfingers 7.12502 0 0
lthumb -1.52702 -652.707 0
rclavicle 4.41038e-15 -1.86915e-14 0
rhumerus 21 49.7267 -47.5522
rradius 106.437 0 0
rwrist -44.0842 0 0
rhand -7.69976 -401.804 0
rfingers 7.12502 0 0
rthumb 18.1977 289.028 0
3063
root -1.43109 15.9898 -34.0806 1087.19 4.98487 1.40746
lfemur -35.0462 4.78101 -2.94489
ltibia 54.9552 0 0
lfoot -11.2455 -4.91227 0
ltoes -45.0516 0 0
rfemur -37.2351 -4.83009 24.7779
rtibia 62.1181 0 0
rfoot -20.6148 -28.1678 0
rtoes -0.40938 0 0
lowerback 13.4129 0.140786 -1.16872
upperback -1.03328 0.134217 1.58123
thorax -8.66762 0.162671 2.32282
lowerneck 3.96104 -8.86867 -11.9831
upperneck -3.14857 -12.1859 9.91761
head -0.241059 -6.15539 4.83303
lclavicle 2.11711e-15 -1.91614e-14 0
lhumerus 14.2747 -45.7799 87.2117
lradius 71.0133 0 0
lwrist -1.21466 0 0
lhand -28.1963 397.405 0
lfingers 7.12502 0 0
lthumb -1.57555 -652.621 0
rclavicle 2.11711e-15 -1.91614e-14 0
rhumerus 19.1473 49.9797 -49.0481
rradius 106.73 0 0
rwrist -43.7231 0 0
rhand -7.72121 -402.058 0
rfingers 7.12502 0 0
rthumb 18.177 288.772 0
